<svg width="30" height="30" viewBox="0 0 30 30" fill="none" xmlns="http://www.w3.org/2000/svg">
<path d="M15 19.375C14.8355 19.376 14.6724 19.3444 14.5201 19.2822C14.3678 19.22 14.2293 19.1284 14.1125 19.0125L9.1125 14.0125C8.99595 13.896 8.9035 13.7576 8.84043 13.6053C8.77735 13.453 8.74489 13.2898 8.74489 13.125C8.74489 12.9602 8.77735 12.797 8.84043 12.6447C8.9035 12.4924 8.99595 12.3541 9.1125 12.2375C9.22905 12.121 9.36741 12.0285 9.51969 11.9654C9.67197 11.9024 9.83518 11.8699 10 11.8699C10.1648 11.8699 10.328 11.9024 10.4803 11.9654C10.6326 12.0285 10.771 12.121 10.8875 12.2375L15 16.375L19.125 12.4C19.24 12.2721 19.3801 12.1694 19.5366 12.0981C19.6932 12.0269 19.8627 11.9887 20.0346 11.986C20.2066 11.9833 20.3772 12.0161 20.5359 12.0823C20.6946 12.1486 20.8379 12.2468 20.9569 12.371C21.0759 12.4951 21.168 12.6425 21.2274 12.8039C21.2868 12.9652 21.3123 13.1371 21.3023 13.3088C21.2923 13.4805 21.2469 13.6482 21.1691 13.8016C21.0913 13.9549 20.9826 14.0906 20.85 14.2L15.85 19.025C15.6214 19.2454 15.3175 19.3705 15 19.375Z" fill="#157AFE"/>
</svg>
